<?xml version="1.0" encoding="utf-8"?>
<!-- Generator: Adobe Illustrator 19.0.0, SVG Export Plug-In . SVG Version: 6.00 Build 0)  -->
<svg version="1.1" id="Calque_1" xmlns="http://www.w3.org/2000/svg" xmlns:xlink="http://www.w3.org/1999/xlink" x="0px" y="0px"
	 viewBox="0 0 138.6 171.7" style="enable-background:new 0 0 138.6 171.7;" xml:space="preserve">
<style type="text/css">
	.st0{fill:none;}
	.st1{font-family:'BebasNeue-Regular';}
	.st2{font-size:24px;}
</style>
<g id="XMLID_1_">
	<path id="XMLID_34_" d="M81.2,83"/>
	<g id="XMLID_4_">
		<path id="XMLID_5_" class="st0" d="M52.3,68c-1.3,0.4-3.5,1-5,1.9c-2.4,1.3-1.3,4.4-1.3,4.4l6.6-5.8C52.8,68.3,52.6,67.9,52.3,68z
			"/>
		<path id="XMLID_19_" class="st0" d="M71.8,33.6c1.7-0.4,3.4-0.8,5.1-1.2c0.1,0,0.3-0.1,0.3-0.2c0.3-0.8,0.6-1.6,1-2.4
			c-0.7-0.5-1.3-0.9-2-1.4c-0.5,0.6-0.9,1.1-1.4,1.6c-0.2,0.3-0.5,0.5-0.9,0.6c-1,0.5-2.1,0.9-3.1,1.3c-0.2,0.1-0.4,0.3-0.6,0.5
			c-0.6,0.9-1.3,1.8-1.8,2.8c-0.5,0.8-1.1,1.4-1.9,1.8c-0.8,0.5-1.6,1-2.4,1.5c0,0,0,0,0,0.1c0.1,0,0.2,0,0.2-0.1
			c1.2-0.5,2.4-0.9,3.6-1.4c0.1-0.1,0.3-0.2,0.4-0.3c1-1,2-2,3-3C71.5,33.8,71.7,33.7,71.8,33.6z"/>
		<path id="XMLID_21_" class="st0" d="M36.3,85.9c3.3-0.5,3.1-4.9,3.1-4.9C36.7,81.2,36.3,85.9,36.3,85.9z"/>
		<path id="XMLID_24_" class="st0" d="M84.4,37.9c0.1,0,0.1,0,0.2,0c2.1-0.2,4.1-0.3,6.2-0.5c0.1,0,0.3-0.1,0.3-0.2
			c0.4-0.7,0.8-1.5,1.3-2.2c0.1-0.2,0.3-0.3,0.5-0.4c0.9-0.2,1.8-0.4,2.8-0.6c0.3-0.1,0.5-0.1,0.9-0.2c-0.4-0.2-0.7-0.4-1.1-0.6
			c-0.4-0.2-0.6-0.4-0.9-0.8c-0.5-0.8-1-1.6-1.6-2.4c-0.1,0.1-0.2,0.2-0.2,0.3c-1.2,1.8-2.4,3.6-3.6,5.4c-0.1,0.1-0.2,0.2-0.4,0.3
			c-0.3,0.1-0.5,0.2-0.8,0.3C86.8,36.9,85.6,37.4,84.4,37.9C84.4,37.9,84.4,37.9,84.4,37.9z"/>
		<path id="XMLID_30_" class="st0" d="M80.9,38.6c0.1-1.5,0.2-3,0.4-4.5c1.8-0.2,3.5-0.3,5.2-0.5c-0.1-0.2-0.2-0.2-0.4-0.3
			c-0.8-0.4-1.6-0.9-2.4-1.3c-0.2-0.1-0.3-0.2-0.2-0.4c0.2-1.8,0.4-3.6,0.6-5.4c0.1-1,0.3-2.1-0.3-3.1c-0.1,0.1-0.1,0.1-0.1,0.2
			c-1,1.5-2,3-3,4.4c-0.6,0.8-1.2,1.7-1.4,2.7c-0.2,0.8-0.5,1.6-0.8,2.4c-0.1,0.2-0.2,0.4-0.4,0.5c-1.8,1.1-3.6,2.1-5.4,3.2
			c-0.7,0.4-1.5,0.9-2.2,1.3c0,0,0,0,0,0.1c2.8-1,5.6-1.9,8.5-2.9C79.5,36.3,80.2,37.5,80.9,38.6C80.9,38.6,80.9,38.6,80.9,38.6z"/>
		<path id="XMLID_33_" class="st0" d="M75.3,54.9c0,0-4.2,3.2-4.2,6.4c0,3.4,3.7,6.4,3.7,6.4s2.8,1.4,3.6-6.2
			C79.1,54,75.3,54.9,75.3,54.9z M77.6,61.5c-0.6,6-2.8,4.9-2.8,4.9s-2.9-2.4-2.9-5c0-2.6,3.3-5.1,3.3-5.1S78.2,55.5,77.6,61.5z"/>
		<path id="XMLID_41_" d="M75.2,56.2c0,0-3.3,2.5-3.3,5.1c0,2.7,2.9,5,2.9,5s2.2,1.1,2.8-4.9C78.2,55.5,75.2,56.2,75.2,56.2z"/>
		<path id="XMLID_44_" d="M119.8,52.5c-6.4-1.4-10.8-6.3-10.8-6.3c-0.3-0.3-5.2-4.3-5.2-4.3c-0.7-0.9-1.5-1.6-2.1-2.4
			c-0.4-0.5-0.9-0.9-1.1-1.4c-0.7-1.3-1.2-2.6-1.8-3.9c-0.1-0.2-0.2-0.3-0.4-0.4c-0.9-0.5-1.7-0.9-2.6-1.3c-0.2-0.1-0.4-0.3-0.5-0.4
			c-0.3-0.4-0.6-0.8-0.8-1.2c-0.5-0.7-0.9-1.3-1.4-2c-0.6,0.9-1.3,1.8-1.9,2.7c-0.7-0.5-1.5-1-2.2-1.5c-0.1-0.1-0.1-0.1-0.2-0.2
			c-1.3-2.3-2.5-4.5-3.8-6.8c-0.4-0.7-0.7-1.3-1.1-2c-1.7,2.6-3.4,5.2-5.1,7.8c-0.9-0.7-1.8-1.3-2.7-1.9c-0.7,0.8-1.4,1.6-2.1,2.3
			c-0.1,0.1-0.2,0.2-0.4,0.3c-1.2,0.5-2.4,1-3.6,1.5c-0.2,0.1-0.3,0.2-0.4,0.4c-0.8,1.2-1.7,2.5-2.5,3.7c-0.3,0.4-0.6,0.7-0.9,1
			c-1.1,0.7-2.2,1.4-3.2,2.1c-0.4,0.3-0.8,0.6-1,1c-0.5,0.9-1,1.8-1.6,2.8c-4.4,0-9.2,4.3-10,5c-0.7,0.8-4.5,10.3-6.3,12
			c-1.3,1.2-2,1.7-1.6,2.4s2.9,7.9,2.9,7.9c-3.3,5.9-6.7,7.3-6.7,7.3c-6,6.7-3.4,15.4-3.4,15.4l3.8,0.7L36.8,93v3
			c0,7.8,6.5,6.3,6.5,6.3L60,100c1.9-28,17.2-30.8,17.9-30.9c0.7-0.1,2.2,0.5,2,1.4s-0.6,1.2-1.7,1.4c-11.4,1.9-15.4,15.6-16.6,29
			c0,0,0,0,0,0.1c-1.7,10.6,1.4,16,1.4,16l5.5,1.7l26.9-5.5l24.3-27.2C119.8,85.9,126.2,53.9,119.8,52.5z M36.3,85.9
			c0,0,0.4-4.7,3.1-4.9C39.4,81,39.6,85.3,36.3,85.9z M52.6,68.4L46,74.2c0,0-1.1-3.1,1.3-4.4c1.5-0.8,3.7-1.5,5-1.9
			C52.6,67.9,52.8,68.3,52.6,68.4z M88.8,36.1c0.1-0.1,0.3-0.2,0.4-0.3c1.2-1.8,2.4-3.6,3.6-5.4c0.1-0.1,0.1-0.2,0.2-0.3
			c0.5,0.8,1.1,1.6,1.6,2.4c0.2,0.3,0.5,0.6,0.9,0.8c0.3,0.2,0.6,0.3,1.1,0.6c-0.4,0.1-0.6,0.1-0.9,0.2c-0.9,0.2-1.9,0.4-2.8,0.6
			c-0.2,0-0.4,0.2-0.5,0.4c-0.4,0.7-0.8,1.5-1.3,2.2c-0.1,0.1-0.2,0.2-0.3,0.2c-2.1,0.2-4.1,0.3-6.2,0.5c-0.1,0-0.1,0-0.2,0
			c0,0,0-0.1,0-0.1c1.2-0.5,2.4-0.9,3.6-1.4C88.3,36.3,88.5,36.2,88.8,36.1z M68.3,36.9c-0.1,0.1-0.2,0.2-0.4,0.3
			c-1.2,0.5-2.4,0.9-3.6,1.4c-0.1,0-0.1,0-0.2,0.1c0,0,0,0,0-0.1c0.8-0.5,1.6-1,2.4-1.5c0.8-0.5,1.4-1,1.9-1.8
			c0.6-1,1.2-1.9,1.8-2.8c0.1-0.2,0.4-0.4,0.6-0.5c1-0.4,2.1-0.8,3.1-1.3c0.3-0.1,0.6-0.4,0.9-0.6c0.5-0.5,0.9-1.1,1.4-1.6
			c0.7,0.5,1.3,0.9,2,1.4c-0.3,0.8-0.6,1.6-1,2.4c0,0.1-0.2,0.2-0.3,0.2c-1.7,0.4-3.4,0.8-5.1,1.2c-0.2,0-0.4,0.2-0.5,0.3
			C70.3,34.9,69.3,35.9,68.3,36.9z M78.3,61.5c-0.7,7.5-3.6,6.2-3.6,6.2s-3.7-3-3.7-6.4c0-3.3,4.2-6.4,4.2-6.4S79.1,54,78.3,61.5z
			 M78.9,35.2c-2.8,1-5.7,1.9-8.5,2.9c0,0,0,0,0-0.1c0.7-0.4,1.5-0.9,2.2-1.3c1.8-1.1,3.6-2.1,5.4-3.2c0.2-0.1,0.4-0.3,0.4-0.5
			c0.3-0.8,0.6-1.6,0.8-2.4c0.3-1,0.8-1.9,1.4-2.7c1-1.5,2-3,3-4.4c0-0.1,0.1-0.1,0.1-0.2c0.6,1,0.4,2,0.3,3.1
			c-0.2,1.8-0.4,3.6-0.6,5.4c0,0.2,0.1,0.3,0.2,0.4c0.8,0.4,1.6,0.8,2.4,1.3c0.1,0.1,0.3,0.1,0.4,0.3c-1.7,0.2-3.5,0.3-5.2,0.5
			c-0.1,1.5-0.2,3-0.4,4.5c0,0-0.1,0-0.1,0C80.2,37.5,79.5,36.3,78.9,35.2z"/>
	</g>
	<g id="XMLID_9_">
		<g id="XMLID_16_">
			<path id="XMLID_17_" d="M26,129.3c1.6,1.2,3.4,1.3,5.2,1c0.9-0.2,1.8-0.6,2.8-0.9c0.2-0.1,0.5,0,0.7,0c0.4,0.1,0.9,0.1,1.3,0.3
				c0.2,0.1,0.5,0.3,0.5,0.4c0.1,0.7,0.4,0.8,1.1,0.8c9.7,0,19.4,0,29.1,0c2.6,0,5.2,0,7.8,0c0.8,0,1.5-0.3,2.3-0.3
				c1,0,1.9,0.1,2.9,0.2c0.4,0,0.7,0.1,1.1,0.1c8.5,0,16.9,0.1,25.4,0.1c1,0,2-0.1,3.1-0.1c0.8,0,1.5,0,2.3,0.1
				c0.5,0,0.7-0.3,0.8-0.8c0.1-0.6,0.3-1.1,0.5-1.7c0.3-0.6,0.9-0.6,1.2,0c0.3,0.6,0.4,1.2,0.6,1.9c0.1,0.5,0.3,0.7,0.8,0.7
				c0.9,0,1.8,0,2.7,0.1c0.2,0,0.4,0.2,0.5,0.3c-0.2,0.1-0.4,0.2-0.6,0.3c-0.9,0.1-1.8,0.1-2.7,0.1c-0.6,0-0.8,0.3-0.9,0.9
				c-0.1,0.6-0.3,1.1-0.5,1.6c-0.1,0.2-0.4,0.4-0.6,0.4c-0.2,0-0.5-0.3-0.6-0.5c-0.2-0.5-0.4-1.1-0.5-1.7c-0.1-0.4-0.3-0.6-0.7-0.7
				c-0.3,0-0.6-0.1-0.8-0.1c-3,0-6.1,0.1-9.1,0.1c-6.9,0-13.8,0-20.7,0c-1.3,0-2.7,0.4-4,0.2c-1.8-0.3-3.6-0.2-5.4-0.2
				c-10.2,0-20.3,0-30.5,0c-1.2,0-2.3,0-3.5,0c-0.5,0-0.8,0.1-0.9,0.7c-0.1,0.6-0.7,1-1.3,0.8c-1.2-0.5-2.4-0.4-3.6-0.2
				c-2,0.4-3.9,0-5.9-0.4c-0.3-0.1-0.7-0.1-1-0.1c-0.1,0-0.3,0.1-0.4,0.2c0.1,0.1,0.1,0.3,0.2,0.3c0.8,0.2,1.6,0.4,2.5,0.6
				c0.7,0.1,1.5,0.2,2.2,0.3c2.2,0.5,4.4,1,6.6,1.6c0.8,0.2,1.6,0.5,2.4,0.9c0.5,0.2,0.9,2,0.5,2.4c-0.1,0.1-0.4,0.2-0.6,0.2
				c-2.5,0.2-4.9-0.3-7.3-1.2c-2.6-1-4.9-2.5-7.1-4.1c-1.6-1.2-1.8-2.6-1.5-4.3c0.1-0.8,0.7-1,1.4-0.5c0.1,0.1,0.2,0.1,0.3,0.2
				C24.8,130.1,25.3,130.1,26,129.3z"/>
		</g>
		<g id="XMLID_11_">
			<path id="XMLID_15_" d="M114.6,159.8c-1.6-1.2-3.4-1.3-5.2-1c-0.9,0.2-1.8,0.6-2.8,0.9c-0.2,0.1-0.5,0-0.7,0
				c-0.4-0.1-0.9-0.1-1.3-0.3c-0.2-0.1-0.5-0.3-0.5-0.4c-0.1-0.7-0.4-0.8-1.1-0.8c-9.7,0-19.4,0-29.1,0c-2.6,0-5.2,0-7.8,0
				c-0.8,0-1.5,0.3-2.3,0.3c-1,0-1.9-0.1-2.9-0.2c-0.4,0-0.7-0.1-1.1-0.1c-8.5,0-16.9-0.1-25.4-0.1c-1,0-2,0.1-3.1,0.1
				c-0.8,0-1.5,0-2.3-0.1c-0.5,0-0.7,0.3-0.8,0.8c-0.1,0.6-0.3,1.1-0.5,1.7c-0.3,0.6-0.9,0.6-1.2,0c-0.3-0.6-0.4-1.2-0.6-1.9
				c-0.1-0.5-0.3-0.7-0.8-0.7c-0.9,0-1.8,0-2.7-0.1c-0.2,0-0.4-0.2-0.5-0.3c0.2-0.1,0.4-0.2,0.6-0.3c0.9-0.1,1.8-0.1,2.7-0.1
				c0.6,0,0.8-0.3,0.9-0.9c0.1-0.6,0.3-1.1,0.5-1.6c0.1-0.2,0.4-0.4,0.6-0.4c0.2,0,0.5,0.3,0.6,0.5c0.2,0.5,0.4,1.1,0.5,1.7
				c0.1,0.4,0.3,0.6,0.7,0.7c0.3,0,0.6,0.1,0.8,0.1c3,0,6.1-0.1,9.1-0.1c6.9,0,13.8,0,20.7,0c1.3,0,2.7-0.4,4-0.2
				c1.8,0.3,3.6,0.2,5.4,0.2c10.2,0,20.3,0,30.5,0c1.2,0,2.3,0,3.5,0c0.5,0,0.8-0.1,0.9-0.7c0.1-0.6,0.7-1,1.3-0.8
				c1.2,0.5,2.4,0.4,3.6,0.2c2-0.4,3.9,0,5.9,0.4c0.3,0.1,0.7,0.1,1,0.1c0.1,0,0.3-0.1,0.4-0.2c-0.1-0.1-0.1-0.3-0.2-0.3
				c-0.8-0.2-1.6-0.4-2.5-0.6c-0.7-0.1-1.5-0.2-2.2-0.3c-2.2-0.5-4.4-1-6.6-1.6c-0.8-0.2-1.6-0.5-2.4-0.9c-0.5-0.2-0.9-2-0.5-2.4
				c0.1-0.1,0.4-0.2,0.6-0.2c2.5-0.2,4.9,0.3,7.3,1.2c2.6,1,4.9,2.5,7.1,4.1c1.6,1.2,1.8,2.6,1.5,4.3c-0.1,0.8-0.7,1-1.4,0.5
				c-0.1-0.1-0.2-0.1-0.3-0.2C115.9,159,115.4,159,114.6,159.8z"/>
		</g>
		<text id="XMLID_10_" transform="matrix(1 0 0 1 43.5906 153.2184)" class="st1 st2">HIKONG</text>
	</g>
	<g id="XMLID_3_">
		<path id="XMLID_25_" d="M70,17.6c27.3,0,49.5,22.1,49.5,49.5c0,27.3-22.1,49.5-49.5,49.5S20.5,94.4,20.5,67.1
			C20.5,39.8,42.7,17.6,70,17.6 M70,13.6c-29.5,0-53.5,24-53.5,53.5s24,53.5,53.5,53.5s53.5-24,53.5-53.5S99.5,13.6,70,13.6L70,13.6
			z"/>
	</g>
</g>
</svg>
